<?xml version="1.0" encoding="UTF-8"?>
<svg version="1.1" xmlns="http://www.w3.org/2000/svg" width="282" height="282">
<path d="M0 0 C0.68075592 0.00215515 1.36151184 0.0043103 2.06289673 0.00653076 C12.59735946 0.05993546 22.538732 0.60005578 32.75 3.3125 C33.53342773 3.51117676 34.31685547 3.70985352 35.12402344 3.91455078 C47.09669723 7.00614063 57.99653832 11.21300497 68.75 17.3125 C69.33894043 17.64540039 69.92788086 17.97830078 70.53466797 18.32128906 C78.14878015 22.68622981 85.09467181 27.60172899 91.75 33.3125 C92.57113281 34.01117188 93.39226562 34.70984375 94.23828125 35.4296875 C112.87225103 51.71629872 126.62979892 72.39290966 134.625 95.8125 C135.03625122 97.00190186 135.03625122 97.00190186 135.45581055 98.21533203 C139.76404154 111.58810243 141.25845669 125.06308247 141.14111328 139.04199219 C141.12500029 141.31245934 141.14109767 143.5811477 141.16015625 145.8515625 C141.18172794 159.83924661 139.25729163 173.41399197 134.6875 186.6875 C134.39077393 187.55834229 134.09404785 188.42918457 133.78833008 189.32641602 C121.1626745 224.84068698 94.53647506 252.85480163 60.99755859 269.4934082 C33.00321114 282.79256895 -2.08245083 287.32598024 -32.25 279.3125 C-33.03342773 279.11382324 -33.81685547 278.91514648 -34.62402344 278.71044922 C-46.62295705 275.61207855 -57.43049712 271.32432846 -68.25 265.3125 C-69.34054688 264.72339844 -70.43109375 264.13429688 -71.5546875 263.52734375 C-83.13267866 257.06075581 -92.65579351 248.35179044 -102.25 239.3125 C-102.85972656 238.75175781 -103.46945313 238.19101563 -104.09765625 237.61328125 C-105.25 236.3125 -105.25 236.3125 -105.25 234.3125 C-105.91 234.3125 -106.57 234.3125 -107.25 234.3125 C-109.05564305 232.14208058 -110.72711547 229.97409299 -112.375 227.6875 C-113.11314941 226.66740845 -113.11314941 226.66740845 -113.86621094 225.62670898 C-127.41378415 206.60766142 -137.1388263 184.5739499 -140.25 161.3125 C-140.36085937 160.49394531 -140.47171875 159.67539063 -140.5859375 158.83203125 C-144.94127539 119.92826986 -133.58883074 83.36185031 -110.25 52.3125 C-109.69957031 51.52230469 -109.14914063 50.73210938 -108.58203125 49.91796875 C-108.14246094 49.38816406 -107.70289063 48.85835937 -107.25 48.3125 C-106.59 48.3125 -105.93 48.3125 -105.25 48.3125 C-104.87101562 47.44818359 -104.87101562 47.44818359 -104.484375 46.56640625 C-92.92716143 25.46351944 -61.14244705 11.59385291 -39.28881836 5.15161133 C-38.15585327 4.82906372 -38.15585327 4.82906372 -37 4.5 C-36.31623291 4.30494873 -35.63246582 4.10989746 -34.92797852 3.90893555 C-23.38083764 0.81943143 -11.92035589 -0.0515937 0 0 Z " fill="#FEB031" transform="translate(141.25,-0.3125)"/>
<path d="M0 0 C2.60472808 2.50053896 4.97588415 5.12789759 7.3125 7.875 C17.90435329 19.96717923 32.61169095 27.85401219 48.78271484 29.2381897 C55.96012656 29.52152844 63.13504852 29.32218576 70.3125 29.125 C96.50279492 28.49919126 96.50279492 28.49919126 106 32 C106 32.33 106 32.66 106 33 C99.565 32.505 99.565 32.505 93 32 C93 32.66 93 33.32 93 34 C93.721875 34.226875 94.44375 34.45375 95.1875 34.6875 C100.74165422 37.27943864 103.72286333 41.42101516 106 47 C107.06861685 51.9745957 107.18327415 56.81243715 107.1875 61.875 C107.19974609 62.63941406 107.21199219 63.40382812 107.22460938 64.19140625 C107.23800393 69.451002 106.45677758 73.94446359 105 79 C105.95972174 76.45884998 106.91781494 73.91710543 107.875 71.375 C108.27912109 70.30572266 108.27912109 70.30572266 108.69140625 69.21484375 C110.2134184 65.16851878 111.66372172 61.11262344 113 57 C114.45792884 56.94600264 115.91642712 56.90720823 117.375 56.875 C118.18710938 56.85179687 118.99921875 56.82859375 119.8359375 56.8046875 C122 57 122 57 124 59 C124.81528383 66.60931579 122.83675535 73.11015682 118.31640625 79.30859375 C114.49276009 83.79007151 110.50705133 87.69059138 105 90 C104.01 90 103.02 90 102 90 C101.72736328 90.96099609 101.72736328 90.96099609 101.44921875 91.94140625 C99.28649564 99.38339193 96.5391722 106.09018761 93 113 C92.34 113 91.68 113 91 113 C90.79375 113.680625 90.5875 114.36125 90.375 115.0625 C89.068907 117.85278959 88.05975497 119.01292371 85.9375 121.125 C81.94652229 125.50439403 82.02063746 130.29374337 82 136 C85.3 136 88.6 136 92 136 C92.33 137.32 92.66 138.64 93 140 C93.66 140 94.32 140 95 140 C96.4606285 142.64738916 97 143.89448334 97 147 C97.969375 147.17015625 98.93875 147.3403125 99.9375 147.515625 C107.30950089 148.83592801 114.64776984 150.2790911 121.9375 152 C122.97487305 152.23058105 122.97487305 152.23058105 124.03320312 152.46582031 C125.96484375 152.9375 125.96484375 152.9375 129 154 C129.33 154.99 129.66 155.98 130 157 C131.99054876 157.69437747 133.99255385 158.35610218 136 159 C142.34728605 162.70258353 147.63540609 166.90621826 150 174 C150.5775 174.845625 151.155 175.69125 151.75 176.5625 C152.36875 177.7690625 152.36875 177.7690625 153 179 C151.72055658 182.96542729 148.69666021 185.47157694 145.6875 188.1875 C145.15914551 188.66727295 144.63079102 189.1470459 144.08642578 189.64135742 C138.42550523 194.67226961 132.35578488 198.88933354 126 203 C125.18144531 203.54269531 124.36289063 204.08539063 123.51953125 204.64453125 C112.90774739 211.38132536 101.33348564 215.82746531 89.3125 219.3125 C88.48258545 219.55484375 87.6526709 219.7971875 86.79760742 220.046875 C74.84988123 223.35536826 63.11995609 224.36603966 50.75 224.3125 C50.06924408 224.31034485 49.38848816 224.3081897 48.68710327 224.30596924 C38.15264054 224.25256454 28.211268 223.71244422 18 221 C17.21657227 220.80132324 16.43314453 220.60264648 15.62597656 220.39794922 C3.62704295 217.29957855 -7.18049712 213.01182846 -18 207 C-19.09054688 206.41089844 -20.18109375 205.82179688 -21.3046875 205.21484375 C-30.69031262 199.97274524 -38.60427265 193.34611949 -46.5625 186.1875 C-47.08779297 185.71924805 -47.61308594 185.25099609 -48.15429688 184.76855469 C-50.60063244 182.52797052 -51.9322511 181.20324669 -53 178 C-52.5625 175.8125 -52.5625 175.8125 -52 174 C-51.34 174 -50.68 174 -50 174 C-49.835 173.319375 -49.67 172.63875 -49.5 171.9375 C-46.47161937 166.00692127 -40.67384723 162.24219842 -35 159 C-34.56300781 158.52175781 -34.12601563 158.04351562 -33.67578125 157.55078125 C-28.27407203 152.55199673 -19.13712633 151.45845966 -12.1171875 150.39453125 C-10.02209471 150.21062908 -10.02209471 150.21062908 -9 149 C-7.40608137 148.60224617 -5.79911776 148.25604817 -4.1875 147.9375 C-2.87845703 147.67259766 -2.87845703 147.67259766 -1.54296875 147.40234375 C1 147 1 147 5 147 C5.268125 146.278125 5.53625 145.55625 5.8125 144.8125 C8.1875 139.1875 8.1875 139.1875 10 137 C13.6875 136.6875 13.6875 136.6875 17 137 C17.65393535 131.7140226 18.15859686 126.97891726 15.39453125 122.2578125 C13.32960223 119.77059968 11.18152477 117.38502521 9 115 C3.61204588 107.7491894 -0.50001648 98.91838026 -2 90 C-3.2684375 89.9071875 -3.2684375 89.9071875 -4.5625 89.8125 C-11.91093253 88.07559777 -15.8338416 83.53349152 -19.7109375 77.26171875 C-23.07055661 71.36711432 -24.57072662 66.84871944 -24 60 C-23.34 59.01 -22.68 58.02 -22 57 C-18.96133201 56.58862798 -16.07840297 56.86806844 -13 57 C-11.02 61.95 -9.04 66.9 -7 72 C-7 69.82930055 -7.02685893 67.65854572 -7.0703125 65.48828125 C-7.25319923 54.27974555 -7.32875489 46.59219037 0.765625 38.0546875 C8.43726236 31 8.43726236 31 13 31 C14.0595223 27.8214331 14.44531199 26.27377714 14 23 C11.39919322 18.35776173 8.20471587 14.23951704 5 10 C0 2.58542141 0 2.58542141 0 0 Z " fill="#F2D394" transform="translate(91,58)"/>
<path d="M0 0 C0 0.33 0 0.66 0 1 C-5.28 1.66 -10.56 2.32 -16 3 C-13.628125 3.391875 -11.25625 3.78375 -8.8125 4.1875 C14.32572063 8.39616493 31.19072066 21.3595349 46 39 C45.67 39.66 45.34 40.32 45 41 C44.34 40.67 43.68 40.34 43 40 C43 39.34 43 38.68 43 38 C42.360625 37.773125 41.72125 37.54625 41.0625 37.3125 C37.62377631 35.83876128 34.49544914 34.02810979 31.28125 32.12109375 C28.85079932 30.92667706 26.6656708 30.41768433 24 30 C24.74443359 30.58394531 24.74443359 30.58394531 25.50390625 31.1796875 C34.77923898 38.81819681 41.07228805 48.26301193 44 60 C44.76386582 67.90919396 44.47183746 75.42999778 42 83 C41.34 83 40.68 83 40 83 C39.79375 81.824375 39.5875 80.64875 39.375 79.4375 C38.01049662 74.3654973 36.30536545 71.11242332 32 68 C18.11247402 62.53720841 3.53160438 63.71683628 -11.08862305 64.1574707 C-32.92669282 64.76101409 -51.25193413 61.7933355 -67.76171875 46.2578125 C-70.69476925 43.29916819 -73.38097219 40.23932387 -76 37 C-71.23769826 45.51329582 -71.23769826 45.51329582 -65.5 53.375 C-63.36150666 56.11797412 -63.0061601 56.67351491 -62.9375 60.3125 C-64.7144157 64.80705146 -67.84012281 66.61857405 -71.8125 69.1875 C-77.26593245 72.96663301 -82.08596861 77.08905355 -83.64453125 83.7578125 C-84.04966047 87.45294717 -84.14974662 91.10050637 -84.125 94.8125 C-84.12209961 95.864375 -84.12209961 95.864375 -84.11914062 96.9375 C-84.07677226 102.03111901 -83.71974474 106.96178685 -83 112 C-85.83246607 109.16753393 -86.62537517 105.71912151 -87.875 102 C-89.50113202 97.24946313 -91.13152973 92.54937765 -93.125 87.9375 C-94.87306745 83.67338568 -96.06039365 79.33479912 -97.1875 74.875 C-97.35459473 74.21749756 -97.52168945 73.55999512 -97.69384766 72.88256836 C-100.77599195 60.18737154 -101.5488763 48.5923219 -95.3125 36.8125 C-91.70176979 32.42107136 -87.43333636 28.81111212 -82 27 C-81.30212135 25.05909251 -81.30212135 25.05909251 -81 22.75 C-79.47639642 14.92140272 -75.15188402 10.05639403 -68.6875 5.5 C-64.67188801 3.08298402 -60.44468086 1.65687557 -56 0.25 C-55.00359497 -0.06614258 -55.00359497 -0.06614258 -53.98706055 -0.38867188 C-36.92901146 -5.50252367 -17.10294769 -4.22543413 0 0 Z " fill="#6F3010" transform="translate(169,24)"/>
<path d="M0 0 C0.66 1.65 1.32 3.3 2 5 C2.66 5 3.32 5 4 5 C4.33 6.32 4.66 7.64 5 9 C6.11375 9.24234375 7.2275 9.4846875 8.375 9.734375 C12.41350272 10.61792266 16.44772295 11.51954513 20.47998047 12.43115234 C22.12154964 12.80170613 23.76377551 13.16936633 25.40673828 13.53369141 C27.62868496 14.02979968 29.84580341 14.54350342 32.0625 15.0625 C33.08827148 15.28728027 33.08827148 15.28728027 34.13476562 15.51660156 C36.03515625 15.97265625 36.03515625 15.97265625 39 17 C39.495 18.485 39.495 18.485 40 20 C41.99054876 20.69437747 43.99255385 21.35610218 46 22 C52.34728605 25.70258353 57.63540609 29.90621826 60 37 C60.5775 37.845625 61.155 38.69125 61.75 39.5625 C62.1625 40.366875 62.575 41.17125 63 42 C61.72055658 45.96542729 58.69666021 48.47157694 55.6875 51.1875 C54.89496826 51.90715942 54.89496826 51.90715942 54.08642578 52.64135742 C48.42550523 57.67226961 42.35578488 61.88933354 36 66 C35.18144531 66.54269531 34.36289063 67.08539063 33.51953125 67.64453125 C22.82598753 74.43322986 11.1764472 78.87258459 -0.9375 82.375 C-1.80093018 82.62572266 -2.66436035 82.87644531 -3.55395508 83.13476562 C-9.04086379 84.65189298 -14.32804116 85.50778157 -20 86 C-19.34284561 77.29025221 -17.23359678 68.96251537 -15.1875 60.5 C-14.83999287 59.04699495 -14.49298483 57.59387044 -14.14648438 56.140625 C-13.97474701 55.42193741 -13.80300964 54.70324982 -13.62606812 53.96278381 C-13.27819729 52.50505639 -12.93137985 51.04707719 -12.58560181 49.58885193 C-11.71117448 45.91367856 -10.81021251 42.24905737 -9.85498047 38.59399414 C-7.58059649 29.7360856 -6.45610093 21.64445367 -6.75 12.4375 C-6.77707031 10.76397461 -6.77707031 10.76397461 -6.8046875 9.05664062 C-6.85080863 6.37008469 -6.91582257 3.68558389 -7 1 C-4 0 -4 0 0 0 Z " fill="#69C6FB" transform="translate(181,195)"/>
<path d="M0 0 C3.61328125 -0.13671875 3.61328125 -0.13671875 7 0 C6.95286865 0.98504517 6.95286865 0.98504517 6.90478516 1.98999023 C6.2410634 18.15595583 7.82939642 32.21329208 12.13134766 47.7734375 C13.668109 53.481655 14.9838209 59.24048273 16.3125 65 C16.56660645 66.06798828 16.82071289 67.13597656 17.08251953 68.23632812 C18.46633507 74.16293446 19.46311646 79.93637411 20 86 C-10.04166313 81.33412862 -35.67506799 68.53021819 -58 48 C-58.96164063 47.12472656 -59.92328125 46.24945313 -60.9140625 45.34765625 C-63 43 -63 43 -62.8125 39.6875 C-62.544375 38.800625 -62.27625 37.91375 -62 37 C-61.34 37 -60.68 37 -60 37 C-59.835 36.319375 -59.67 35.63875 -59.5 34.9375 C-56.47161937 29.00692127 -50.67384723 25.24219842 -45 22 C-44.56300781 21.52175781 -44.12601563 21.04351562 -43.67578125 20.55078125 C-38.27407203 15.55199673 -29.13712633 14.45845966 -22.1171875 13.39453125 C-20.02209471 13.21062908 -20.02209471 13.21062908 -19 12 C-17.40608137 11.60224617 -15.79911776 11.25604817 -14.1875 10.9375 C-13.31480469 10.76089844 -12.44210938 10.58429688 -11.54296875 10.40234375 C-9 10 -9 10 -5 10 C-4.731875 9.278125 -4.46375 8.55625 -4.1875 7.8125 C-1.8125 2.1875 -1.8125 2.1875 0 0 Z " fill="#69C6FB" transform="translate(101,195)"/>
<path d="M0 0 C1.54426285 3.98020274 0.45000899 7.49784956 -0.51171875 11.484375 C-0.68121536 12.21763 -0.85071198 12.95088501 -1.02534485 13.70635986 C-1.57090049 16.0563165 -2.12912988 18.40305911 -2.6875 20.75 C-3.04442529 22.28236469 -3.4005526 23.81491547 -3.75585938 25.34765625 C-5.79951325 34.12258265 -7.94513675 42.86992464 -10.15454102 51.60449219 C-11.17975413 55.7219233 -12.11098546 59.85126547 -13 64 C-16.67885811 65.1575098 -20.15695488 65.12933704 -23.99609375 65.1328125 C-25.0019326 65.13424759 -25.0019326 65.13424759 -26.02809143 65.13571167 C-27.44263808 65.1363904 -28.8571879 65.13455755 -30.27172852 65.13037109 C-32.42666696 65.12502687 -34.5813962 65.1303221 -36.73632812 65.13671875 C-38.11458379 65.13605775 -39.49283933 65.13477613 -40.87109375 65.1328125 C-42.74172485 65.13112061 -42.74172485 65.13112061 -44.65014648 65.12939453 C-47.56903996 65.01664666 -50.16708793 64.67801366 -53 64 C-53.29132813 62.77410156 -53.58265625 61.54820312 -53.8828125 60.28515625 C-54.2968538 58.54426579 -54.71091828 56.80338085 -55.125 55.0625 C-55.34583252 54.13332764 -55.56666504 53.20415527 -55.79418945 52.24682617 C-57.05234862 46.95905669 -58.3188776 41.67344829 -59.59765625 36.390625 C-59.86239746 35.29484131 -60.12713867 34.19905762 -60.39990234 33.07006836 C-60.91294146 30.94809659 -61.42751296 28.82649454 -61.94384766 26.70532227 C-62.64389053 23.80672936 -63.32823504 20.90527007 -64 18 C-64.2160791 17.06978027 -64.4321582 16.13956055 -64.65478516 15.18115234 C-64.84733887 14.30023926 -65.03989258 13.41932617 -65.23828125 12.51171875 C-65.49605347 11.34902466 -65.49605347 11.34902466 -65.7590332 10.1628418 C-66.0184083 7.83477293 -65.70681312 6.21749617 -65 4 C-64.68546875 4.80824219 -64.3709375 5.61648437 -64.046875 6.44921875 C-63.61890625 7.51785156 -63.1909375 8.58648437 -62.75 9.6875 C-62.33234375 10.74324219 -61.9146875 11.79898438 -61.484375 12.88671875 C-59.16531628 17.75063927 -55.99821594 21.20576861 -51.9375 24.6875 C-51.26589844 25.26886719 -50.59429687 25.85023438 -49.90234375 26.44921875 C-47.87458561 28.15278989 -47.87458561 28.15278989 -45 30 C-45 30.66 -45 31.32 -45 32 C-36.75 32 -28.5 32 -20 32 C-20 31.34 -20 30.68 -20 30 C-19.01 30 -18.02 30 -17 30 C-16.9071875 29.071875 -16.9071875 29.071875 -16.8125 28.125 C-16.544375 27.42375 -16.27625 26.7225 -16 26 C-14.33927151 25.31867549 -12.672233 24.65257873 -11 24 C-9.84077872 22.26857146 -9.84077872 22.26857146 -9 20 C-8.401875 19.030625 -7.80375 18.06125 -7.1875 17.0625 C-4.0746487 11.70604644 -2.1272755 5.79769757 0 0 Z " fill="#DEE0E1" transform="translate(174,217)"/>
<path d="M0 0 C3.61328125 -0.13671875 3.61328125 -0.13671875 7 0 C6.9685791 0.65669678 6.9371582 1.31339355 6.90478516 1.98999023 C6.2410634 18.15595583 7.82939642 32.21329208 12.13134766 47.7734375 C13.668109 53.481655 14.9838209 59.24048273 16.3125 65 C16.56660645 66.06798828 16.82071289 67.13597656 17.08251953 68.23632812 C18.46633507 74.16293446 19.46311646 79.93637411 20 86 C17.41638159 85.52233101 14.83310662 85.04292208 12.25 84.5625 C11.15558594 84.36043945 11.15558594 84.36043945 10.0390625 84.15429688 C8.0242891 83.77881638 6.01203606 83.38988249 4 83 C3.29109619 82.87431641 2.58219238 82.74863281 1.85180664 82.61914062 C0 82 0 82 -1.51953125 79.33984375 C-5.99352188 67.5668956 -5.99352188 67.5668956 -4 61 C-3.67773438 59.88625 -3.35546875 58.7725 -3.0234375 57.625 C-2.057721 54.40131327 -1.04803246 51.19771764 0 48 C-0.87398437 47.7421875 -1.74796875 47.484375 -2.6484375 47.21875 C-6.02996049 45.98910527 -8.63612722 44.48696895 -11.625 42.5 C-14.68909093 40.47443849 -17.67258871 38.56216493 -21 37 C-20.48607755 32.43476681 -19.38334548 29.54100393 -16.8125 25.75 C-13.77400338 21.19225507 -10.96554398 16.5639583 -8.26171875 11.80078125 C-7.84535156 11.20652344 -7.42898437 10.61226562 -7 10 C-6.34 10 -5.68 10 -5 10 C-4.731875 9.278125 -4.46375 8.55625 -4.1875 7.8125 C-1.8125 2.1875 -1.8125 2.1875 0 0 Z " fill="#288CC8" transform="translate(101,195)"/>
<path d="M0 0 C0.66 1.65 1.32 3.3 2 5 C2.66 5 3.32 5 4 5 C4.66 7.31 5.32 9.62 6 12 C6.66 12 7.32 12 8 12 C9.20507812 13.55712891 9.20507812 13.55712891 10.53125 15.7265625 C11.25248047 16.90412109 11.25248047 16.90412109 11.98828125 18.10546875 C12.48714844 18.93691406 12.98601562 19.76835937 13.5 20.625 C13.99886719 21.43324219 14.49773437 22.24148437 15.01171875 23.07421875 C17.56692417 27.287225 19.69628336 31.20418522 21 36 C18.77144622 37.43845758 16.54218143 38.87579219 14.3125 40.3125 C13.37374023 40.91868164 13.37374023 40.91868164 12.41601562 41.53710938 C2.38014482 48 2.38014482 48 0 48 C0.55880859 49.73636719 0.55880859 49.73636719 1.12890625 51.5078125 C1.60745139 53.04666353 2.08527817 54.58573808 2.5625 56.125 C2.80935547 56.88554687 3.05621094 57.64609375 3.31054688 58.4296875 C4.72215455 63.0422647 5.22278501 66.21577011 4 71 C3.87625 71.94101562 3.7525 72.88203125 3.625 73.8515625 C2.86500101 77.22405804 2.15582991 79.26359015 0 82 C-5.95299245 84.92577422 -13.44003557 86 -20 86 C-19.34284561 77.29025221 -17.23359678 68.96251537 -15.1875 60.5 C-14.83999287 59.04699495 -14.49298483 57.59387044 -14.14648438 56.140625 C-13.97474701 55.42193741 -13.80300964 54.70324982 -13.62606812 53.96278381 C-13.27819729 52.50505639 -12.93137985 51.04707719 -12.58560181 49.58885193 C-11.71117448 45.91367856 -10.81021251 42.24905737 -9.85498047 38.59399414 C-7.58059649 29.7360856 -6.45610093 21.64445367 -6.75 12.4375 C-6.77707031 10.76397461 -6.77707031 10.76397461 -6.8046875 9.05664062 C-6.85080863 6.37008469 -6.91582257 3.68558389 -7 1 C-4 0 -4 0 0 0 Z " fill="#288CC8" transform="translate(181,195)"/>
<path d="M0 0 C0 3.3 0 6.6 0 10 C3.3 10 6.6 10 10 10 C10.495 11.98 10.495 11.98 11 14 C11.66 14 12.32 14 13 14 C13.99 16.97 13.99 16.97 15 20 C14.34 20 13.68 20 13 20 C12.505 18.02 12.505 18.02 12 16 C11.34 16 10.68 16 10 16 C9.01 13.525 9.01 13.525 8 11 C5.69 11.33 3.38 11.66 1 12 C1.0407666 12.61520508 1.0815332 13.23041016 1.12353516 13.86425781 C1.30221977 16.65890625 1.46377962 19.45429198 1.625 22.25 C1.68945312 23.21808594 1.75390625 24.18617188 1.8203125 25.18359375 C1.871875 26.11816406 1.9234375 27.05273438 1.9765625 28.015625 C2.02893066 28.87446289 2.08129883 29.73330078 2.13525391 30.61816406 C1.98509586 33.26246344 1.40709526 34.77295167 0 37 C-7.18265988 41.40492642 -16.76865819 40.84712069 -24.75 39.5546875 C-35.71594071 36.45419831 -45.13920967 26.77098718 -52 18 C-52.66 17.67 -53.32 17.34 -54 17 C-55.01565306 15.2963239 -56.02578294 13.58836921 -56.9765625 11.84765625 C-57.85766196 10.25696906 -58.82746383 8.7160044 -59.8125 7.1875 C-60.204375 6.465625 -60.59625 5.74375 -61 5 C-60.67 4.34 -60.34 3.68 -60 3 C-58.32756598 4.28419041 -56.66218553 5.57757185 -55 6.875 C-54.071875 7.59429687 -53.14375 8.31359375 -52.1875 9.0546875 C-51.1046875 10.01761719 -51.1046875 10.01761719 -50 11 C-50 11.66 -50 12.32 -50 13 C-45.545 13.99 -45.545 13.99 -41 15 C-41 15.66 -41 16.32 -41 17 C-35.06 17 -29.12 17 -23 17 C-23 16.34 -23 15.68 -23 15 C-22.45472656 14.79246094 -21.90945312 14.58492187 -21.34765625 14.37109375 C-14.14154432 11.42705828 -8.28041787 7.30955125 -2.80078125 1.78125 C-1 0 -1 0 0 0 Z " fill="#DBBE85" transform="translate(173,184)"/>
<path d="M0 0 C6.4908066 0.38572416 12.13876024 1.06938012 18 4 C20.37503818 8.16211903 20.34778802 12.44985665 20.3125 17.125 C20.30621582 18.25723999 20.30621582 18.25723999 20.29980469 19.41235352 C20.17481542 25.6398775 19.15996845 31.13983244 17 37 C16.49533203 38.41345703 16.49533203 38.41345703 15.98046875 39.85546875 C13.3571894 46.8214053 13.3571894 46.8214053 11 48 C11.33 46.88625 11.66 45.7725 12 44.625 C14.49848236 33.38182937 14.24308 19.92752888 9.875 9.25 C7.51001266 6.41201519 4.85660353 4.89004916 1.64453125 3.11328125 C1.10183594 2.74589844 0.55914062 2.37851563 0 2 C0 1.34 0 0.68 0 0 Z " fill="#672B0B" transform="translate(184,90)"/>
<path d="M0 0 C7.25442337 1.73475341 13.79665932 4.86443955 20 9 C19.67 9.66 19.34 10.32 19 11 C17.02 10.01 15.04 9.02 13 8 C13.64068624 11.77293011 15.38694667 14.34774012 17.5 17.5 C21.17352703 22.98017967 22.12578566 26.43169654 22.1328125 33.0078125 C22.13410156 34.15894531 22.13539063 35.31007812 22.13671875 36.49609375 C22.13285156 37.69363281 22.12898438 38.89117187 22.125 40.125 C22.13080078 41.93291016 22.13080078 41.93291016 22.13671875 43.77734375 C22.13542969 44.92589844 22.13414062 46.07445312 22.1328125 47.2578125 C22.13168457 48.3111377 22.13055664 49.36446289 22.12939453 50.44970703 C22 53 22 53 21 55 C19.515 55.495 19.515 55.495 18 56 C17.67 56.66 17.34 57.32 17 58 C17.99 58 18.98 58 20 58 C20.66 57.34 21.32 56.68 22 56 C22.33 57.32 22.66 58.64 23 60 C20.59454362 61.20272819 19.05003047 61.10071472 16.375 61.0625 C15.14910156 61.04896484 15.14910156 61.04896484 13.8984375 61.03515625 C13.27195313 61.02355469 12.64546875 61.01195312 12 61 C11.93941406 59.97519531 11.87882813 58.95039062 11.81640625 57.89453125 C11.73194974 56.53384305 11.64730433 55.17316657 11.5625 53.8125 C11.52318359 53.13896484 11.48386719 52.46542969 11.44335938 51.77148438 C11.21072435 48.10300898 10.82792989 44.58305794 10 41 C7.36 40.34 4.72 39.68 2 39 C3.6875 37.8125 3.6875 37.8125 6 37 C10.94488495 39.02867075 14.62803989 43.25607978 17 48 C17.039992 49.99960012 17.04346799 52.00047242 17 54 C17.66 54 18.32 54 19 54 C21.56285089 38.30253833 20.33641314 25.34198859 11.125 12.0625 C7.80657965 7.74098301 4.26106481 4.37334297 0 1 C0 0.67 0 0.34 0 0 Z " fill="#F1B242" transform="translate(192,53)"/>
<path d="M0 0 C0.33 0.66 0.66 1.32 1 2 C0.33333333 3.66666667 -0.33333333 5.33333333 -1 7 C-1 8.134375 -1 9.26875 -1 10.4375 C-2.20601123 14.73391501 -3.06466233 14.9904336 -6.8125 17.125 C-8.16988281 17.85589844 -8.16988281 17.85589844 -9.5546875 18.6015625 C-15.03242225 21.73419675 -17.88352391 27.34607824 -19.6875 33.25 C-21.41198137 48.4254361 -16.81588014 63.43379765 -13 78 C-15.31 78 -17.62 78 -20 78 C-20 77.67 -20 77.34 -20 77 C-18.35 77 -16.7 77 -15 77 C-15.18175781 76.47792969 -15.36351563 75.95585938 -15.55078125 75.41796875 C-21.23561874 58.77159844 -25.89933566 40.02686312 -19.265625 22.96875 C-17.75949507 20.62588122 -16.53452407 20.06096356 -14 19 C-13.175 18.34 -12.35 17.68 -11.5 17 C-9 15 -9 15 -6.9453125 14.1484375 C-4.38720314 12.63822836 -4.15311307 11.44683174 -3.375 8.625 C-2.50051949 5.54888622 -1.50936779 2.82522689 0 0 Z " fill="#F0B54C" transform="translate(90,37)"/>
<path d="M0 0 C0.33 0.66 0.66 1.32 1 2 C1.66 2 2.32 2 3 2 C4.99785435 6.1205746 5.17835515 9.45194365 5 14 C3.68 14.33 2.36 14.66 1 15 C0.93941406 16.20398438 0.87882812 17.40796875 0.81640625 18.6484375 C0.73200268 20.22397077 0.64735459 21.79949096 0.5625 23.375 C0.52318359 24.1690625 0.48386719 24.963125 0.44335938 25.78125 C0.11328125 31.7734375 0.11328125 31.7734375 -1 34 C-1.66 34 -2.32 34 -3 34 C-3.25558078 26.75854463 -2.86982072 19.69024562 -2.0625 12.5 C-1.97564941 11.72285645 -1.88879883 10.94571289 -1.79931641 10.14501953 C-1.39190955 6.69222756 -0.89242722 3.35862718 0 0 Z " fill="#F3D595" transform="translate(110,187)"/>
<path d="M0 0 C2.60472808 2.50053896 4.97588415 5.12789759 7.3125 7.875 C12.80396761 14.17266179 18.80882453 18.77868661 26 23 C25.01 23.33 24.02 23.66 23 24 C21.66666667 23.33333333 20.33333333 22.66666667 19 22 C18.01 22.33 17.02 22.66 16 23 C16 24.98 16 26.96 16 29 C15.67 29 15.34 29 15 29 C14.835 27.906875 14.67 26.81375 14.5 25.6875 C13.22701605 20.51314077 10.23384692 16.87035234 7.04296875 12.69140625 C0 3.41300191 0 3.41300191 0 0 Z " fill="#F2DAA3" transform="translate(91,58)"/>
<path d="M0 0 C1.06412109 0.00515625 2.12824219 0.0103125 3.22460938 0.015625 C4.84012695 0.01755859 4.84012695 0.01755859 6.48828125 0.01953125 C15.320457 0.12486429 23.52859168 1.21057945 32.09960938 3.328125 C32.09960938 3.658125 32.09960938 3.988125 32.09960938 4.328125 C25.73987564 4.9129281 19.48845598 5.328125 13.09960938 5.328125 C11.42403558 5.61332905 9.75143693 5.92768196 8.09960938 6.328125 C8.09960938 5.008125 8.09960938 3.688125 8.09960938 2.328125 C2.15960938 2.328125 -3.78039062 2.328125 -9.90039062 2.328125 C-6.90307513 -0.6691905 -4.10203508 0.03717054 0 0 Z " fill="#642606" transform="translate(136.900390625,20.671875)"/>
<path d="M0 0 C0.79921875 0.00644531 1.5984375 0.01289063 2.421875 0.01953125 C3.246875 0.03628906 4.071875 0.05304687 4.921875 0.0703125 C5.76234375 0.07933594 6.6028125 0.08835937 7.46875 0.09765625 C9.53658104 0.12115433 11.60426495 0.15702342 13.671875 0.1953125 C12.681875 0.6903125 12.681875 0.6903125 11.671875 1.1953125 C11.671875 1.8553125 11.671875 2.5153125 11.671875 3.1953125 C14.971875 3.8553125 18.271875 4.5153125 21.671875 5.1953125 C21.671875 5.8553125 21.671875 6.5153125 21.671875 7.1953125 C22.435 7.2984375 23.198125 7.4015625 23.984375 7.5078125 C26.84246924 8.23895289 27.82930385 8.96483163 29.671875 11.1953125 C26.21837397 11.1953125 24.48519401 10.31671323 21.359375 8.8828125 C11.86222848 4.8241046 1.92053351 3.07881754 -8.328125 2.1953125 C-5.40988256 0.52856929 -3.35218121 -0.0478883 0 0 Z " fill="#F2B84C" transform="translate(157.328125,25.8046875)"/>
<path d="M0 0 C2.31 0 4.62 0 7 0 C7.09377123 7.41834582 7.17402193 14.66236293 6 22 C4.51336017 19.24454302 3.5849771 16.72989312 2.9296875 13.671875 C2.66865234 12.47304687 2.66865234 12.47304687 2.40234375 11.25 C2.22832031 10.425 2.05429688 9.6 1.875 8.75 C1.69324219 7.90953125 1.51148437 7.0690625 1.32421875 6.203125 C0.87800459 4.13644889 0.43835555 2.06835723 0 0 Z " fill="#27505E" transform="translate(101,195)"/>
<path d="M0 0 C-0.61846464 2.91819239 -1.24448135 5.83441022 -1.875 8.75 C-2.04902344 9.575 -2.22304687 10.4 -2.40234375 11.25 C-2.57636719 12.04921875 -2.75039062 12.8484375 -2.9296875 13.671875 C-3.08679199 14.4050293 -3.24389648 15.13818359 -3.40576172 15.89355469 C-4.02941889 18.10428356 -4.91143399 19.98236484 -6 22 C-7.10087193 14.98194143 -7.09733092 8.09434233 -7 1 C-4 0 -4 0 0 0 Z " fill="#1C526E" transform="translate(181,195)"/>
<path d="M0 0 C2.4294516 3.6441774 2.16179575 5.71241272 2 10 C2.99 10 3.98 10 5 10 C3.72104338 16.60794255 2.06466711 22.96643662 -1 29 C-1.66 29.33 -2.32 29.66 -3 30 C-2.68289062 28.74316406 -2.36578125 27.48632812 -2.0390625 26.19140625 C-0.83674773 20.7809898 -0.55957725 15.46328128 -0.375 9.9375 C-0.33632812 8.97650391 -0.29765625 8.01550781 -0.2578125 7.02539062 C-0.16461374 4.68377186 -0.07880815 2.34213963 0 0 Z " fill="#5E2B0D" transform="translate(198,108)"/>
<path d="M0 0 C1.58409994 0.11487748 3.16728963 0.24234508 4.75 0.375 C6.07257813 0.47941406 6.07257813 0.47941406 7.421875 0.5859375 C11.62336664 1.26072252 14.16475712 2.88123283 17 6 C15 8 15 8 12 10 C12 9.34 12 8.68 12 8 C11.01 8.33 10.02 8.66 9 9 C8.2575 8.21625 7.515 7.4325 6.75 6.625 C4.45566682 4.43495469 2.87841142 3.17268614 0 2 C0 1.34 0 0.68 0 0 Z " fill="#69381C" transform="translate(184,90)"/>
<path d="M0 0 C2.475 0.99 2.475 0.99 5 2 C5 2.99 5 3.98 5 5 C5.70125 5.226875 6.4025 5.45375 7.125 5.6875 C13.87441743 8.76875578 18.32719199 14.42523138 23 20 C23.51304687 20.60972656 24.02609375 21.21945313 24.5546875 21.84765625 C25.70895728 23.22691081 26.85545117 24.61266808 28 26 C27.67 26.66 27.34 27.32 27 28 C26.60321045 27.55720703 26.2064209 27.11441406 25.79760742 26.65820312 C18.71295646 18.79977049 11.92051545 11.28034363 3.07421875 5.3828125 C1 4 1 4 -1 2 C-0.67 1.34 -0.34 0.68 0 0 Z " fill="#F2B74C" transform="translate(188,36)"/>
<path d="M0 0 C-0.99 0.66 -1.98 1.32 -3 2 C-3.33 2.99 -3.66 3.98 -4 5 C-4.99 5 -5.98 5 -7 5 C-7 5.66 -7 6.32 -7 7 C-9.66626359 7.19693992 -12.33256639 7.38274782 -15 7.5625 C-15.74378906 7.61857422 -16.48757812 7.67464844 -17.25390625 7.73242188 C-22.33002118 8.06347285 -26.97011262 7.77163045 -32 7 C-32.33 6.01 -32.66 5.02 -33 4 C-32.14390137 4.23771118 -32.14390137 4.23771118 -31.27050781 4.48022461 C-29.02789812 4.99361343 -26.96682085 5.20165896 -24.671875 5.31640625 C-23.87265625 5.35830078 -23.0734375 5.40019531 -22.25 5.44335938 C-21.0125 5.50233398 -21.0125 5.50233398 -19.75 5.5625 C-18.48929688 5.62727539 -18.48929688 5.62727539 -17.203125 5.69335938 C-15.13559329 5.79908543 -13.06781719 5.90001295 -11 6 C-11 5.34 -11 4.68 -11 4 C-9.35546875 2.67578125 -9.35546875 2.67578125 -7.1875 1.3125 C-6.47980469 0.85488281 -5.77210938 0.39726562 -5.04296875 -0.07421875 C-3 -1 -3 -1 0 0 Z " fill="#EAD9B2" transform="translate(161,242)"/>
<path d="M0 0 C0.33 0 0.66 0 1 0 C1.06058594 1.26714844 1.12117188 2.53429687 1.18359375 3.83984375 C1.26808565 5.53906964 1.35272919 7.238288 1.4375 8.9375 C1.47681641 9.76830078 1.51613281 10.59910156 1.55664062 11.45507812 C1.83730769 17.00365014 2.33760065 22.48371637 3 28 C0.28256973 25.28256973 -0.50932886 22.13057954 -1.6875 18.5625 C-1.92533203 17.88123047 -2.16316406 17.19996094 -2.40820312 16.49804688 C-4.15126498 11.27908456 -3.30372584 8.76205548 -1.4375 3.8125 C-1.03337891 2.73935547 -1.03337891 2.73935547 -0.62109375 1.64453125 C-0.41613281 1.10183594 -0.21117188 0.55914062 0 0 Z " fill="#5D2A0F" transform="translate(83,108)"/>
<path d="M0 0 C4.20218944 2.4431334 7.5076854 6.2028708 9.6875 10.5625 C9.727492 12.56210012 9.73096799 14.56297242 9.6875 16.5625 C8.6875 14.5625 7.6875 12.5625 6.6875 10.5625 C6.3575 14.8525 6.0275 19.1425 5.6875 23.5625 C5.3575 23.5625 5.0275 23.5625 4.6875 23.5625 C4.62691406 22.53769531 4.56632813 21.51289062 4.50390625 20.45703125 C4.41944974 19.09634305 4.33480433 17.73566657 4.25 16.375 C4.21068359 15.70146484 4.17136719 15.02792969 4.13085938 14.33398438 C3.89822435 10.66550898 3.51542989 7.14555794 2.6875 3.5625 C0.0475 2.9025 -2.5925 2.2425 -5.3125 1.5625 C-2.3125 -0.4375 -2.3125 -0.4375 0 0 Z " fill="#EAAD4C" transform="translate(199.3125,90.4375)"/>
<path d="M0 0 C1.32 0.66 2.64 1.32 4 2 C-2.36363636 7 -2.36363636 7 -7 7 C-7.18175781 7.64066406 -7.36351562 8.28132812 -7.55078125 8.94140625 C-9.06270045 14.14395897 -10.75000671 19.07144327 -13 24 C-14 22 -14 22 -13.546875 20.08203125 C-8.92838196 6.92838196 -8.92838196 6.92838196 -6 4 C-3.375 3.375 -3.375 3.375 -1 3 C-0.67 2.01 -0.34 1.02 0 0 Z " fill="#FBD181" transform="translate(200,141)"/>
<path d="M0 0 C0.33 0 0.66 0 1 0 C1.02893932 3.62498334 1.04677792 7.24993713 1.0625 10.875 C1.07087891 11.90753906 1.07925781 12.94007813 1.08789062 14.00390625 C1.09111328 14.99003906 1.09433594 15.97617188 1.09765625 16.9921875 C1.10289307 17.90339355 1.10812988 18.81459961 1.11352539 19.75341797 C1 22 1 22 0 24 C-0.66 24 -1.32 24 -2 24 C-2.26305952 15.7574683 -1.60614551 8.08808989 0 0 Z " fill="#E3DDAB" transform="translate(109,197)"/>
<path d="M0 0 C0.33 0 0.66 0 1 0 C1 3.96 1 7.92 1 12 C0.67 12 0.34 12 0 12 C0 10.02 0 8.04 0 6 C-2.31 6 -4.62 6 -7 6 C-7.4021875 7.1446875 -7.4021875 7.1446875 -7.8125 8.3125 C-8.94424112 10.87380884 -9.91223401 12.19692938 -12 14 C-10.25 6.25 -10.25 6.25 -8 4 C-5.31160615 3.73008094 -2.70858064 3.91262643 0 4 C0 2.68 0 1.36 0 0 Z " fill="#C4AC5F" transform="translate(108,189)"/>
<path d="M0 0 C15.46015424 2.25792631 15.46015424 2.25792631 22 5 C22.33 5.66 22.66 6.32 23 7 C18.33333333 6.33333333 13.66666667 5.66666667 9 5 C9 4.34 9 3.68 9 3 C6.36 3 3.72 3 1 3 C0.67 2.01 0.34 1.02 0 0 Z " fill="#92BDAC" transform="translate(198,207)"/>
<path d="M0 0 C0.625 1.8125 0.625 1.8125 1 4 C-2.26404817 8.89607226 -5.65310705 11.56959411 -11 14 C-13.21484375 13.59765625 -13.21484375 13.59765625 -15 13 C-14.50371094 12.731875 -14.00742188 12.46375 -13.49609375 12.1875 C-7.87396825 8.94437637 -4.02101989 5.06397193 0 0 Z " fill="#F3B142" transform="translate(211,134)"/>
<path d="M0 0 C0.33 0.66 0.66 1.32 1 2 C0.00097656 2.20496094 -0.99804688 2.40992188 -2.02734375 2.62109375 C-3.31769531 2.89050781 -4.60804687 3.15992188 -5.9375 3.4375 C-7.22527344 3.70433594 -8.51304688 3.97117188 -9.83984375 4.24609375 C-12.84638879 4.67181616 -12.84638879 4.67181616 -14 6 C-16.67058851 6.14115161 -19.32432238 6.04247107 -22 6 C-17.35912721 2.31930779 -13.07246087 1.66354549 -7.3125 0.9375 C-6.61060547 0.84662109 -5.90871094 0.75574219 -5.18554688 0.66210938 C-3.45737377 0.43874006 -1.72873033 0.21901504 0 0 Z " fill="#C3B569" transform="translate(95,203)"/>
<path d="M0 0 C3.3 0 6.6 0 10 0 C10.33 1.32 10.66 2.64 11 4 C11.66 4 12.32 4 13 4 C13.66 5.98 14.32 7.96 15 10 C14.34 10 13.68 10 13 10 C12.67 8.68 12.34 7.36 12 6 C11.34 6 10.68 6 10 6 C9.34 4.35 8.68 2.7 8 1 C5.69 1.33 3.38 1.66 1 2 C1 3.65 1 5.3 1 7 C0.67 7 0.34 7 0 7 C0 4.69 0 2.38 0 0 Z " fill="#B9A763" transform="translate(173,194)"/>
<path d="M0 0 C0.99 0.33 1.98 0.66 3 1 C-0.9700218 5.21814817 -5.30840284 8.61227103 -10 12 C-8.69041436 6.59795923 -4.56696036 2.91200245 0 0 Z " fill="#73C3D8" transform="translate(51,220)"/>
<path d="M0 0 C3.625 -0.1875 3.625 -0.1875 7 0 C7 0.33 7 0.66 7 1 C5.35 1.33 3.7 1.66 2 2 C1.13852726 8.97761838 1.13852726 8.97761838 1 16 C-1.78877083 13.21122917 -2.15157432 10.79375187 -2.1875 7 C-2.20167969 6.319375 -2.21585937 5.63875 -2.23046875 4.9375 C-2 3 -2 3 0 0 Z " fill="#FBD184" transform="translate(69,115)"/>
<path d="M0 0 C0 0.66 0 1.32 0 2 C0.99 2.33 1.98 2.66 3 3 C1.04486839 3.696553 -0.91422476 4.38199565 -2.875 5.0625 C-3.96554688 5.44535156 -5.05609375 5.82820312 -6.1796875 6.22265625 C-9 7 -9 7 -11 6 C-8.43080387 1.71800646 -5.02925904 0 0 0 Z " fill="#F3B132" transform="translate(70,207)"/>
<path d="M0 0 C1.12059732 3.31666723 0.88108499 5.17352588 -0.3125 8.4375 C-0.73982422 9.61119141 -0.73982422 9.61119141 -1.17578125 10.80859375 C-1.44777344 11.53175781 -1.71976563 12.25492188 -2 13 C-2.33 13.99 -2.66 14.98 -3 16 C-3.33 16.66 -3.66 17.32 -4 18 C-4.99 18.33 -5.98 18.66 -7 19 C-4.94235079 12.54646385 -2.57616518 6.2638737 0 0 Z " fill="#DFE1CA" transform="translate(174,217)"/>
<path d="M0 0 C9.61538462 9.23076923 9.61538462 9.23076923 12 14 C10.68 14.33 9.36 14.66 8 15 C6.66121428 12.8782637 5.32884524 10.75294812 4 8.625 C3.6184375 8.02171875 3.236875 7.4184375 2.84375 6.796875 C0 2.2265625 0 2.2265625 0 0 Z " fill="#E1C19B" transform="translate(91,58)"/>
<path d="M0 0 C5.94 1.485 5.94 1.485 12 3 C10.02 3.99 10.02 3.99 8 5 C6.29078411 6.5412312 6.29078411 6.5412312 5 8 C4.34 6.35 3.68 4.7 3 3 C2.34 3 1.68 3 1 3 C0.67 2.01 0.34 1.02 0 0 Z " fill="#74C0D1" transform="translate(186,204)"/>
<path d="M0 0 C0.66 0.33 1.32 0.66 2 1 C2 5.29 2 9.58 2 14 C1.34 14 0.68 14 0 14 C-0.33 11.69 -0.66 9.38 -1 7 C-1.66 7 -2.32 7 -3 7 C-3 5.68 -3 4.36 -3 3 C-2.01 3 -1.02 3 0 3 C0 2.01 0 1.02 0 0 Z " fill="#6F3214" transform="translate(200,104)"/>
<path d="M0 0 C0.33 0.66 0.66 1.32 1 2 C1.763125 2.144375 2.52625 2.28875 3.3125 2.4375 C6.39436392 3.08254128 7.81394256 3.73586908 10 6 C10.75 9.1875 10.75 9.1875 11 12 C9.0625 11.25 9.0625 11.25 7 10 C6.87625 9.360625 6.7525 8.72125 6.625 8.0625 C6.14137349 5.61559751 6.14137349 5.61559751 2.9375 4.25 C1.968125 3.8375 0.99875 3.425 0 3 C0 2.01 0 1.02 0 0 Z " fill="#F3D9A1" transform="translate(182,90)"/>
<path d="M0 0 C1 3 1 3 0.3984375 4.90234375 C-1.81522548 9.30432242 -3.79470746 12.19647164 -8 15 C-7.38259778 10.98688554 -5.28262093 8.28965958 -3 5 C-1.98940479 3.33973644 -0.98546999 1.67529898 0 0 Z " fill="#FBD383" transform="translate(213,126)"/>
<path d="M0 0 C6.97986313 0.31021614 12.07291522 3.4951958 18 7 C17.34 7.66 16.68 8.32 16 9 C10.72 6.36 5.44 3.72 0 1 C0 0.67 0 0.34 0 0 Z " fill="#652704" transform="translate(171,32)"/>
<path d="M0 0 C0.66 0 1.32 0 2 0 C4 2 4 2 4.1953125 5.0390625 C4.17210938 6.22242188 4.14890625 7.40578125 4.125 8.625 C4.10695313 9.81351563 4.08890625 11.00203125 4.0703125 12.2265625 C4.04710938 13.14179688 4.02390625 14.05703125 4 15 C2.1866078 11.79989612 1.47786026 8.86716157 0.875 5.25 C0.70742187 4.26515625 0.53984375 3.2803125 0.3671875 2.265625 C0.24601562 1.51796875 0.12484375 0.7703125 0 0 Z " fill="#115B84" transform="translate(102,198)"/>
<path d="M0 0 C3 3 3 3 3.375 6.5 C3 10 3 10 0 13 C0 8.71 0 4.42 0 0 Z " fill="#F8B836" transform="translate(205,100)"/>
<path d="M0 0 C1.84765625 0.33984375 1.84765625 0.33984375 4.0625 0.9375 C5.16271484 1.22947266 5.16271484 1.22947266 6.28515625 1.52734375 C7.13400391 1.76130859 7.13400391 1.76130859 8 2 C6 5 6 5 3 7 C3 6.34 3 5.68 3 5 C2.01 5.33 1.02 5.66 0 6 C-0.38218767 4.34385343 -0.71395102 2.67542976 -1 1 C-0.67 0.67 -0.34 0.34 0 0 Z " fill="#723314" transform="translate(193,93)"/>
<path d="M0 0 C2.475 0.99 2.475 0.99 5 2 C5 2.99 5 3.98 5 5 C7.475 5.99 7.475 5.99 10 7 C10 7.99 10 8.98 10 10 C6.37 7.69 2.74 5.38 -1 3 C-0.67 2.01 -0.34 1.02 0 0 Z " fill="#ECAE42" transform="translate(188,36)"/>
<path d="M0 0 C11.52164009 -0.3690205 11.52164009 -0.3690205 17 2 C17 2.33 17 2.66 17 3 C11.08739655 3.25706972 5.76081841 2.2982126 0 1 C0 0.67 0 0.34 0 0 Z " fill="#F3DDAD" transform="translate(180,88)"/>
<path d="M0 0 C0.66 0.33 1.32 0.66 2 1 C-1.84147426 6.26267902 -4.51152543 8.83207458 -11 10 C-9.71034824 8.62437146 -8.37310707 7.29233607 -7 6 C-6.34 6 -5.68 6 -5 6 C-4.731875 5.38125 -4.46375 4.7625 -4.1875 4.125 C-3 2 -3 2 0 0 Z " fill="#E4DED6" transform="translate(168,235)"/>
<path d="M0 0 C0.66 0 1.32 0 2 0 C3.25 6.625 3.25 6.625 1 10 C0.34 9.34 -0.32 8.68 -1 8 C-0.96712417 5.27130593 -0.43602229 2.7033382 0 0 Z " fill="#E9CE91" transform="translate(203,116)"/>
<path d="M0 0 C0.66 0.66 1.32 1.32 2 2 C1.625 5.625 1.625 5.625 1 9 C-0.65 9.66 -2.3 10.32 -4 11 C-4 10.01 -4 9.02 -4 8 C-3.01 8 -2.02 8 -1 8 C-0.67 5.36 -0.34 2.72 0 0 Z " fill="#EEAD3A" transform="translate(212,99)"/>
<path d="M0 0 C0.66 0 1.32 0 2 0 C3.3271261 3.9813783 3.06915913 7.85045227 3 12 C2.67 12 2.34 12 2 12 C1.34 9.69 0.68 7.38 0 5 C-0.66 5 -1.32 5 -2 5 C-1.34 3.35 -0.68 1.7 0 0 Z " fill="#318CBE" transform="translate(100,197)"/>
<path d="M0 0 C-1.24976756 3.65316671 -1.67098753 4.78065836 -5 7 C-5.66 6.01 -6.32 5.02 -7 4 C-3.375 0 -3.375 0 0 0 Z " fill="#EFD89F" transform="translate(95,96)"/>
<path d="M0 0 C1.27208622 0.62244599 2.54261882 1.24806767 3.8125 1.875 C4.52019531 2.22304688 5.22789062 2.57109375 5.95703125 2.9296875 C8 4 8 4 11 6 C10.67 6.66 10.34 7.32 10 8 C8.948125 7.38125 7.89625 6.7625 6.8125 6.125 C3.94984323 4.48420892 1.10792754 3.13015547 -2 2 C-1.34 1.34 -0.68 0.68 0 0 Z " fill="#F1B846" transform="translate(201,56)"/>
<path d="M0 0 C-0.66 1.65 -1.32 3.3 -2 5 C-2.33 4.34 -2.66 3.68 -3 3 C-6.3 3.33 -9.6 3.66 -13 4 C-12.67 3.34 -12.34 2.68 -12 2 C-9.78515625 1.3671875 -9.78515625 1.3671875 -7.0625 0.875 C-6.16660156 0.70742187 -5.27070312 0.53984375 -4.34765625 0.3671875 C-2 0 -2 0 0 0 Z " fill="#7BC2D2" transform="translate(94,205)"/>
<path d="M0 0 C0.66 0 1.32 0 2 0 C1.57630928 1.6286551 1.1355377 3.25287378 0.6875 4.875 C0.44386719 5.77992188 0.20023438 6.68484375 -0.05078125 7.6171875 C-1 10 -1 10 -4 12 C-3.52309796 10.37433394 -3.04340334 8.74948689 -2.5625 7.125 C-2.29566406 6.22007812 -2.02882812 5.31515625 -1.75390625 4.3828125 C-1 2 -1 2 0 0 Z " fill="#F2B248" transform="translate(193,148)"/>
<path d="M0 0 C4.32239956 3.34003602 7.17477391 6.32751069 10 11 C6.8510285 9.63088196 4.9521513 8.1247864 2.75 5.5 C2.22921875 4.8915625 1.7084375 4.283125 1.171875 3.65625 C0 2 0 2 0 0 Z " fill="#58260C" transform="translate(94,60)"/>
<path d="M0 0 C2.96404505 2.80804268 5.44499019 5.18315774 7 9 C6.01 8.67 5.02 8.34 4 8 C4 7.34 4 6.68 4 6 C1.525 5.01 1.525 5.01 -1 4 C-0.67 2.68 -0.34 1.36 0 0 Z " fill="#85480F" transform="translate(208,56)"/>
<path d="M0 0 C0.66 0.33 1.32 0.66 2 1 C2.40729228 3.32156597 2.74438677 5.6568787 3 8 C2.690625 7.360625 2.38125 6.72125 2.0625 6.0625 C-1.09768575 2.90231425 -4.68333908 3.18099207 -9 3 C-9 2.67 -9 2.34 -9 2 C-6.03 2 -3.06 2 0 2 C0 1.34 0 0.68 0 0 Z " fill="#F5B448" transform="translate(213,112)"/>
<path d="M0 0 C7.38461538 0.49230769 7.38461538 0.49230769 10.5 3.0625 C10.995 3.701875 11.49 4.34125 12 5 C8.76344816 5 7.21247361 4.3449153 4.3125 3 C3.50425781 2.62875 2.69601563 2.2575 1.86328125 1.875 C1.24839844 1.58625 0.63351563 1.2975 0 1 C0 0.67 0 0.34 0 0 Z " fill="#E6A846" transform="translate(175,32)"/>
<path d="M0 0 C2.97 0.495 2.97 0.495 6 1 C5.01 3.31 4.02 5.62 3 8 C1.58622659 5.36095629 0.62759865 2.92879371 0 0 Z " fill="#F4D698" transform="translate(204,115)"/>
<path d="M0 0 C2.31 0.33 4.62 0.66 7 1 C6.67 1.66 6.34 2.32 6 3 C5.34 3 4.68 3 4 3 C4 3.66 4 4.32 4 5 C1.525 4.01 1.525 4.01 -1 3 C-0.67 2.01 -0.34 1.02 0 0 Z " fill="#70361B" transform="translate(110,74)"/>
<path d="M0 0 C3.77126791 1.01180358 4.78414572 1.67621858 7 5 C6.01 5.495 6.01 5.495 5 6 C5 5.34 5 4.68 5 4 C2.36 3.34 -0.28 2.68 -3 2 C-2.01 1.34 -1.02 0.68 0 0 Z " fill="#CFA880" transform="translate(197,90)"/>
<path d="M0 0 C2.7824349 1.39121745 3.55210065 3.30164212 5 6 C5 6.66 5 7.32 5 8 C3.68 7.67 2.36 7.34 1 7 C0.67 4.69 0.34 2.38 0 0 Z " fill="#E7DFD0" transform="translate(111,229)"/>
<path d="M0 0 C0.66 0 1.32 0 2 0 C2 0.66 2 1.32 2 2 C2.99 2.33 3.98 2.66 5 3 C2.36 3.66 -0.28 4.32 -3 5 C-1.625 2.5 -1.625 2.5 0 0 Z " fill="#E1B344" transform="translate(68,207)"/>
<path d="M0 0 C0.66 0 1.32 0 2 0 C3.125 4.75 3.125 4.75 2 7 C1.34 7 0.68 7 0 7 C-0.38133299 5.0085944 -0.71325582 3.00720923 -1 1 C-0.67 0.67 -0.34 0.34 0 0 Z " fill="#E6CB92" transform="translate(78,119)"/>
<path d="M0 0 C0.66 0.33 1.32 0.66 2 1 C-0.475 4.465 -0.475 4.465 -3 8 C-3.33 6.68 -3.66 5.36 -4 4 C-2.0625 1.75 -2.0625 1.75 0 0 Z " fill="#6C2D06" transform="translate(94,35)"/>
</svg>
